<svg width="83" height="84" viewBox="0 0 83 84" fill="none" xmlns="http://www.w3.org/2000/svg">
<g clip-path="url(#clip0_4094_9159)">
<path d="M50.5768 8.75391L48.487 14.3268L42.9141 16.4167L48.487 18.5065L50.5768 24.0794L52.6667 18.5065L58.2396 16.4167L52.6667 14.3268L50.5768 8.75391Z" fill="#636146"/>
</g>
<path d="M54.2883 55.5057L63.2103 65.1455M63.2103 65.1455L70.1838 81.425L53.0955 74.917M63.2103 65.1455L53.0955 74.917M44.1357 66.2736L52.75 74.7854L53.0955 74.917M41.5223 42.9076L64.6508 21.0778C65.6798 20.4527 68.1127 19.5776 69.6129 21.0778C71.4881 22.953 71.2465 24.768 67.6767 28.3378C64.8209 31.1937 41.2359 56.9569 29.8004 69.4815L21.5723 61.7374L31.3846 52.4761M41.5223 42.9076L31.3846 52.4761M41.5223 42.9076L24.5312 26.2933M31.3846 52.4761L14.82 36.3495M14.82 36.3495L9.35462 31.0287C7.95617 29.5445 6.13223 25.6684 10.0241 22.0382C13.916 18.4079 17.307 19.441 18.5159 20.4114L24.5312 26.2933M14.82 36.3495L24.5312 26.2933M3 81.425C5.13997 80.4717 9.54075 77.6566 10.0241 74.0232C10.6284 69.4815 14.933 58.6155 23.5433 64.4311C32.1535 70.2468 26.0357 78.1017 22.4859 79.4613C18.936 80.8208 16.1423 82.9356 3 81.425Z" stroke="#636146" stroke-width="2.66667" stroke-linecap="round" stroke-linejoin="round"/>
<g clip-path="url(#clip1_4094_9159)">
<path d="M66.11 0.601562L64.4714 4.97135L60.1016 6.61003L64.4714 8.2487L66.11 12.6185L67.7487 8.2487L72.1185 6.61003L67.7487 4.97135L66.11 0.601562Z" fill="#636146"/>
</g>
<defs>
<clipPath id="clip0_4094_9159">
<rect width="16.7188" height="16.7188" fill="white" transform="translate(42.2188 8.05469)"/>
</clipPath>
<clipPath id="clip1_4094_9159">
<rect width="13.1094" height="13.1094" fill="white" transform="translate(59.5547 0.0546875)"/>
</clipPath>
</defs>
</svg>
