<svg width="83" height="84" viewBox="0 0 83 84" fill="none" xmlns="http://www.w3.org/2000/svg">
<path d="M24.3054 6.14883C26.4499 6.14909 30.7389 5.88173 30.7389 4.81029M30.7389 4.81029C30.7389 3.47099 28.268 2.13281 24.3054 2.13281C20.3427 2.13281 18.0781 3.47175 18.0781 4.81029C18.0781 5.88113 18.0781 12.8385 18.0781 16.1833C18.7296 16.595 20.887 17.4185 24.3054 17.4185C27.7237 17.4185 30.0187 16.3892 30.7389 15.8745V4.81029Z" stroke="#636146" stroke-width="2.66667" stroke-linecap="round" stroke-linejoin="round"/>
<path d="M18.0924 20.6836C18.1469 22.2307 17.9717 25.6863 16.8345 27.1315C15.4131 28.938 8.35935 32.9844 6.22682 33.9139C4.09428 34.8435 3.00102 36.812 3.00102 41.1864C3.00102 44.686 3.00102 63.55 3.00102 72.5446C2.98298 73.5299 3.19827 75.7647 4.20369 76.8213C5.46045 78.1419 11.7265 79.8604 25.622 79.8604" stroke="#636146" stroke-width="2.66667" stroke-linecap="round" stroke-linejoin="round"/>
<path d="M30.7748 20.6836C30.7203 22.2307 30.8955 25.6863 32.0326 27.1315C33.4541 28.938 40.5078 32.9844 42.6404 33.9139C44.7729 34.8435 45.8662 36.812 45.8662 41.1864C45.8662 44.686 45.8662 63.55 45.8662 72.5446C45.8842 73.5299 45.6689 75.7647 44.6635 76.8213C43.4067 78.1419 37.1407 79.8604 23.2452 79.8604" stroke="#636146" stroke-width="2.66667" stroke-linecap="round" stroke-linejoin="round"/>
<path d="M24.4529 67.2198H11.8812C11.9175 66.1676 11.2608 63.9435 8.34375 63.4646V43.6547C10.5388 42.7477 16.8337 40.9336 24.4529 40.9336" stroke="#636146" stroke-width="2.66667" stroke-linecap="round" stroke-linejoin="round"/>
<path d="M24.4143 67.2198H36.986C36.9497 66.1676 37.6064 63.9435 40.5234 63.4646V43.6547C38.3284 42.7477 32.0335 40.9336 24.4143 40.9336" stroke="#636146" stroke-width="2.66667" stroke-linecap="round" stroke-linejoin="round"/>
<path d="M17.1602 33.1523L9.86719 37.5586" stroke="#636146" stroke-width="2.66667" stroke-linecap="round" stroke-linejoin="round"/>
<path d="M7.69531 73.5352C9.18287 73.8254 12.3974 74.395 13.3553 74.3515M17.764 74.6236C22.1359 74.932 32.8935 75.1461 40.9481 73.5352" stroke="#636146" stroke-width="2.66667" stroke-linecap="round" stroke-linejoin="round"/>
<path d="M16.182 48.8826C18.7399 47.5946 25.5645 45.7914 32.4 48.8826M13.3516 53.7262H35.5021M19.5562 61.1821H29.2979" stroke="#636146" stroke-width="2.66667" stroke-linecap="round" stroke-linejoin="round"/>
</svg>
